<svg width="52" height="44" viewBox="0 0 52 44" fill="none" xmlns="http://www.w3.org/2000/svg">
<rect width="52" height="44" fill="white"/>
<path fill-rule="evenodd" clip-rule="evenodd" d="M35.75 1.83337H9.75002C7.36669 1.83337 5.41669 3.48337 5.41669 5.50004V31.1667H9.75002V5.50004H35.75V1.83337ZM42.25 9.16671H18.4167C16.0334 9.16671 14.0834 10.8167 14.0834 12.8334V38.5C14.0834 40.5167 16.0334 42.1667 18.4167 42.1667H42.25C44.6334 42.1667 46.5834 40.5167 46.5834 38.5V12.8334C46.5834 10.8167 44.6334 9.16671 42.25 9.16671ZM18.4167 38.5H42.25V12.8334H18.4167V38.5Z" fill="#499D32" fill-opacity="0.5"/>
<path fill-rule="evenodd" clip-rule="evenodd" d="M34.1354 23.63C33.9479 20.84 32.7708 18.12 30.5625 16C28.3333 18.14 27.1041 20.86 26.8646 23.63C28.1979 24.31 29.4271 25.19 30.5 26.26C31.5729 25.2 32.8021 24.32 34.1354 23.63ZM30.5521 19.19C31.2083 20.22 31.6666 21.37 31.9062 22.57C31.4166 22.87 30.9583 23.2 30.5104 23.55C30.0729 23.21 29.6041 22.88 29.125 22.58C29.3854 21.38 29.8646 20.23 30.5521 19.19ZM27.3125 26.25C28.5625 27.11 29.6458 28.2 30.5 29.45C32.7396 26.17 36.5625 24 40.9166 24C40.9166 29.32 37.4166 33.82 32.5521 35.49C31.8854 35.71 31.2083 35.88 30.5 36C29.7916 35.89 29.1041 35.72 28.4479 35.49C23.5833 33.82 20.0833 29.32 20.0833 24C22.7812 24 25.2708 24.83 27.3021 26.24C27.2478 26.2053 27.1896 26.1706 27.1301 26.135C27.0524 26.0887 26.9725 26.0409 26.8958 25.99C26.9744 26.048 27.0565 26.096 27.138 26.1436L27.1381 26.1436L27.1381 26.1436L27.1381 26.1436C27.197 26.178 27.2557 26.2122 27.3125 26.25ZM31.875 33.6C31.4166 33.75 30.9583 33.87 30.4896 33.97C30.0312 33.88 29.5833 33.76 29.1562 33.61C25.7291 32.43 23.2187 29.62 22.4375 26.26C23.5833 26.52 24.6771 26.97 25.6875 27.59L25.6666 27.6L25.6667 27.6C25.8021 27.69 25.9375 27.78 26.0729 27.85L26.1458 27.89C27.1771 28.61 28.0625 29.5 28.7604 30.54L30.5 33.1L32.2396 30.55C32.9583 29.5 33.8541 28.6 34.875 27.89L34.9479 27.84C35.0416 27.79 35.1354 27.73 35.2291 27.67L35.2291 27.67L35.2187 27.65C36.2396 27 37.375 26.52 38.5625 26.25C37.7812 29.62 35.2812 32.43 31.875 33.6ZM27.3229 26.2498C27.3341 26.26 27.3493 26.2727 27.3646 26.28C27.3437 26.27 27.3333 26.26 27.3229 26.25C27.3229 26.2499 27.3229 26.2499 27.3229 26.2498ZM27.3125 26.24C27.3125 26.24 27.3228 26.24 27.3229 26.2498C27.3188 26.2461 27.3153 26.2427 27.3125 26.24Z" fill="black" fill-opacity="0.3"/>
</svg>
