<svg width="52" height="44" viewBox="0 0 52 44" fill="none" xmlns="http://www.w3.org/2000/svg">
<rect width="52" height="44" fill="white"/>
<path fill-rule="evenodd" clip-rule="evenodd" d="M33.5617 17.655C33.1717 12.54 30.7233 7.55329 26.13 3.66663C21.4933 7.58996 18.9367 12.5766 18.4383 17.655C21.2117 18.9016 23.7683 20.515 26 22.4766C28.2317 20.5333 30.7883 18.92 33.5617 17.655ZM26.1083 9.51491C27.4733 11.4032 28.4266 13.5116 28.925 15.7116C27.9066 16.2616 26.9533 16.8666 26.0216 17.5082C25.1116 16.8849 24.1366 16.2799 23.14 15.7299C23.6816 13.5299 24.6783 11.4216 26.1083 9.51491ZM19.37 22.4583C21.97 24.035 24.2233 26.0333 26 28.325C30.6583 22.3116 38.61 18.3333 47.6666 18.3333C47.6666 28.0866 40.3867 36.3366 30.2683 39.3983C28.8816 39.8016 27.4733 40.1133 26 40.3333C24.5266 40.1316 23.0966 39.82 21.7316 39.3983C11.6133 36.3366 4.33331 28.0866 4.33331 18.3333C9.94498 18.3333 15.1233 19.855 19.3483 22.44C19.2355 22.3763 19.1146 22.3127 18.9908 22.2476L18.9907 22.2475L18.9906 22.2475L18.9906 22.2475L18.9905 22.2475C18.8291 22.1625 18.6627 22.075 18.5033 21.9816C18.6668 22.088 18.8376 22.1759 19.0072 22.2632C19.1298 22.3263 19.2518 22.3891 19.37 22.4583ZM28.86 35.9333C27.9067 36.2083 26.9533 36.4283 25.9783 36.6116C25.025 36.4466 24.0933 36.2266 23.205 35.9516C16.0767 33.7883 10.855 28.6366 9.22999 22.4766C11.6133 22.9533 13.8883 23.7783 15.99 24.915L15.9467 24.9333L15.9467 24.9333C16.2284 25.0983 16.51 25.2633 16.7917 25.3916L16.9433 25.465C19.0883 26.785 20.93 28.4166 22.3817 30.3233L26 35.0166L29.6183 30.3416C31.1133 28.4166 32.9767 26.7666 35.1 25.465L35.2517 25.3733C35.4466 25.2816 35.6416 25.1716 35.8366 25.0617L35.8366 25.0616L35.8367 25.0616L35.815 25.025C37.9383 23.8333 40.3 22.9533 42.77 22.4583C41.145 28.6366 35.945 33.7883 28.86 35.9333ZM19.3916 22.4581C19.4149 22.4768 19.4466 22.5001 19.4783 22.5135C19.435 22.4952 19.4133 22.4768 19.3916 22.4585C19.3916 22.4584 19.3916 22.4582 19.3916 22.4581ZM19.37 22.4402C19.37 22.4402 19.3914 22.4401 19.3916 22.4581C19.3831 22.4513 19.3758 22.4451 19.37 22.4402Z" fill="black" fill-opacity="0.3"/>
</svg>
