<svg width="47" height="52" viewBox="0 0 47 52" fill="none" xmlns="http://www.w3.org/2000/svg">
<rect width="47" height="52" fill="white"/>
<path fill-rule="evenodd" clip-rule="evenodd" d="M23.5 8.66663C19.1721 8.66663 15.6666 12.545 15.6666 17.3333C15.6666 22.1216 19.1721 26 23.5 26C27.8279 26 31.3333 22.1216 31.3333 17.3333C31.3333 12.545 27.8279 8.66663 23.5 8.66663ZM27.4166 17.3333C27.4166 14.95 25.6541 13 23.5 13C21.3458 13 19.5833 14.95 19.5833 17.3333C19.5833 19.7166 21.3458 21.6666 23.5 21.6666C25.6541 21.6666 27.4166 19.7166 27.4166 17.3333ZM35.25 36.8333C34.8583 35.295 28.7875 32.5 23.5 32.5C18.2125 32.5 12.1416 35.295 11.75 36.855V39H35.25V36.8333ZM7.83331 36.8333C7.83331 31.07 18.2712 28.1666 23.5 28.1666C28.7287 28.1666 39.1666 31.07 39.1666 36.8333V43.3333H7.83331V36.8333Z" fill="black" fill-opacity="0.3"/>
</svg>
